<svg height="713" viewBox="0 0 500 713" width="500" xmlns="http://www.w3.org/2000/svg"><g fill="none" fill-rule="evenodd"><g fill="#000" fill-rule="nonzero"><path d="m115.780158 140.259433c-1.938873-1.612691-3.499392-3.733512-4.461223-6.258391-2.887281-7.865972 1.001707-16.559948 8.779699-19.51709 9.427869-3.54856 19.20929-6.623979 29.108553-9.403673-31.583361-48.7927167-71.4161066-87.4720172-81.7278419-75.1112024-9.9997047 11.9867796-32.8549957 50.3362809-34.1752987 153.0723704-18.4147925 9.360538-30.91976781 15.583853-30.91976781 15.454146-.76727386-117.0080688 25.79232901-165.2288824 41.66907011-183.471445 5.4299648-6.33262302 12.9846985-9.9346517 20.8935678-10.4575242 4.662691-.34859157 9.5614522.46477886 14.106108 2.44008155 18.3556305 7.90124055 63.5659975 32.59261345 100.9265125 94.00153065 11.447471-2.1030661-22.806093 17.248168-64.199379 39.251197z" transform="matrix(.9612617 -.27563736 .27563736 .9612617 3.976112 55.423413)"/><path d="m55.547804 120.985921c32.7381706 10.950487 78.195942 25.439436 82.121606 28.919968-3.084809-79.7676391-22.276742-117.2811693-30.746893-127.1996421-14.2401437 6.2369267-50.6865943 26.6294452-80.4387487 79.8363431-16.66343401-10.9342057-26.00736432-18.0813936-19.6467958-16.9065602 33.1508928-54.4896026 73.2671203-76.39884898 89.5021564-83.40980888 10.8408001-4.69116029 23.3051201-1.80429445 31.0560371 7.11406885 14.087812 16.23861043 37.654797 58.97454503 36.973964 162.79860623 0 .309314-6.782502 12.474779-6.834883 12.784093 4.004762 0-56.016318-35.388235-101.986443-63.937068z" transform="matrix(.92050485 .39073113 -.39073113 .92050485 346.231099 20.547945)"/><path d="m246.521836 75.3424658c61.292945 0 118.242876 52.6915132 161.092671 123.9030412 42.849808 71.21152 71.837548 162.968493 71.837548 249.545164 0 68.206233-19.640548 132.107165-58.968329 179.419945-39.327767 47.312781-98.668658 77.268836-173.96189 77.268836-75.345315 0-134.641028-29.952589-173.9351511-77.268836-39.2941219-47.316246-58.8880548-111.220383-58.8880548-179.419945 0-86.573671 28.958548-178.332972 71.7840274-249.545164 42.8254935-71.212197 99.7346715-123.9030412 161.0391785-123.9030412zm0 34.2465752c-44.695494 0-97.331904 43.714548-137.574918 110.632493-40.2430139 66.917945-67.8510276 155.033219-67.8510276 235.418452 0 62.937425 18.1933151 120.522576 52.5738493 161.922082 34.3805343 41.399521 84.6220683 67.369439 152.8520963 67.369439 68.172506 0 118.463479-25.966452 152.878849-67.369439 34.41537-41.402972 52.65411-98.991342 52.65411-161.922082 0-80.382246-27.637891-168.499835-67.904535-235.418452-40.266644-66.918615-92.948781-110.632493-137.628424-110.632493z"/></g><path d="m246.575342 109.589041-71.075342 215.910959h132.412951l-57.912951 162h57.912951l-57.912951 197.431507" stroke="#000" stroke-linecap="square" stroke-width="20"/></g></svg>