<svg height="19" viewBox="0 0 20 19" width="20" xmlns="http://www.w3.org/2000/svg"><g><path d="m12.8113889 11.9966667c-.319 0-.5783333.2593305-.5783333.5783333 0 .4546389-.37.82575-.82575.82575-.3765278 0-.6911945-.2549917-.7899445-.6000556.2126722-.0857194.3635-.2929722.3635-.5360277 0-.319-.2593305-.5783334-.5783333-.5783334h-.8040278c-.319 0-.57833333.2593306-.57833333.5783334 0 .2430555.150825.4503055.3635.5360277-.09874167.3450556-.41341667.6000556-.78994445.6000556-.45572222 0-.82575-.37-.82575-.82575 0-.319-.25933055-.5783333-.57833333-.5783333-.319 0-.57833333.2593305-.57833333.5783333 0 .9071111.61305555 1.6720833 1.44638888 1.9064722v.056425c0 1.0720556.87238889 1.9444445 1.94444446 1.9444445 1.0720555 0 1.9444444-.8723889 1.9444444-1.9444445v-.056425c.8333334-.234375 1.4463889-.9993611 1.4463889-1.9064722-.0032553-.3200833-.2615028-.5783333-.5816111-.5783333zm-2.8113889 3.3277777c-.43402778 0-.78666667-.3537222-.78666667-.7866666v-.0813806c.30055556-.0998278.56966667-.2680111.78666667-.4871944.2181.2202694.4871944.3884444.7866667.4871944v.0813806c0 .4340278-.3526389.7866666-.7866667.7866666z"/><path d="m6.58972222 9.17972222c0 1.47786108-2.21680555 1.47786108-2.21680555 0 0-1.47786111 2.21680555-1.47786111 2.21680555 0"/><path d="m15.6272222 9.17972222c0 1.47786108-2.2168055 1.47786108-2.2168055 0 0-1.47786111 2.2168055-1.47786111 2.2168055 0"/><path d="m19.7991667 11.3519444-.3851945-10.53916662c-.0075955-.20507778-.1226139-.38952778-.3027222-.48719445-.1801222-.09765555-.3982222-.09223055-.574.01302084l-4.7147222 2.83416666h-7.75388891l-4.60055556-2.83194444c-.17578055-.10742222-.39497222-.11501667-.57616666-.01736111-.18120556.09657222-.29730556.28319444-.30491667.48827778l-.38519444 10.53916664v.0206164c0 4.5463889 3.66333333 7.2613889 9.79916664 7.2613889 6.1358334 0 9.7991667-2.7148333 9.7991667-7.2613889-.001085-.0054253-.001085-.0130208-.001085-.0195311zm-9.7991667 6.1252778c-2.59658333 0-8.635-.5935278-8.6425-6.0938889l.34938889-9.53666663 3.89527778 2.39691666c.09114444.05642223.19639722.08571945.30272222.08571945h8.07833331c.1052528 0 .2083334-.02821111.2983889-.08246667l4.0125-2.41211111.3493889 9.5486111c-.0086806 5.5002778-6.0472222 6.0938889-8.64361111 6.0938889z"/></g></svg>