<svg height="100%" viewBox="0 0 108 92" width="100%" xmlns="http://www.w3.org/2000/svg" xmlns:xlink="http://www.w3.org/1999/xlink"><radialGradient id="a" cx="-17.765605%" cy="-3.321565%" gradientTransform="matrix(.67213931 .52887501 -.74042471 .4800997 -.08284 .076689)" r="100.820773%"><stop offset="0" stop-color="#fff"/><stop offset="1" stop-color="#ffe1b9"/></radialGradient><g fill="none" fill-rule="evenodd" transform="translate(-1 -12)"><g fill-rule="nonzero" transform="translate(12)"><g transform="matrix(.8660254 .5 -.5 .8660254 55.809082 .290527)"><path d="m19.1099794 20.6639445c4.7797729 1.5987711 11.4166075 3.7141576 11.9897544 4.2223153-.4503821-11.6460753-3.2524043-17.12305073-4.4890463-18.57114775-2.079061.9105913-7.4002428 3.88789895-11.7440573 11.65610615-2.4328614-1.5963941-3.7970752-2.6398835-2.8684322-2.4683578 4.8400303-7.95548203 10.6969995-11.154232 13.0673148-12.17783215 1.5827568-.6849094 3.4025475-.26342699 4.5341814 1.03865406 2.0568206 2.37083712 5.4976005 8.61028359 5.3981987 23.76859649 0 .0451598-.9902453 1.8213178-.9978929 1.8664776.5846952 0-8.1783824-5.1666823-14.8900206-9.3348119z" fill="#000"/><path d="m.00931884 13.146192c.02424631-.024196.04041259-.0403253.0565768-.0564566.16973658-.1451716.32330482-.3145393.43646254-.5161695.01616421-.0241939.04041258-.0403253.05657886-.0645212 4.62325893-8.35549447 10.34575426-11.54122681 12.56847336-12.5090447 1.3093855 1.52431266 4.2762326 7.28954994 4.7531078 19.5485765-.9699145-.8549068-18.33999238-6.0313866-17.87119936-6.4023845z" fill="#ffecd3" transform="translate(13.769569 6.169829)"/><g transform="matrix(-.93969262245 .34202014431 .34202014431 .93969262245 26.56930660749 11.03979305047)"><path d="m1.4581898 10.5136551c-1.14596168-1.07797689-.88736719-3.17445519-.94871961-3.97293705-.13131454-.75967003-.59928705-2.05981971-.49423542-2.77201036.15280238-1.05454195.17613386-1.92400334.73243001-2.81111801.16235253-.25988711.38336389-.79629764.54082328-.85673699 1.22181771-.46898359 4.22581885.81676043 5.51041738 1.41249028 1.26018772.57263196 1.75782753 1.25928115 1.51496219 1.21171129-.11940583-.02338793-2.33524533 1.0436274-3.94717653 3.14656046-1.66665439 2.1743252-2.39278272 5.12716378-2.9085013 4.64204038z" fill="#f9bdbe"/><path d="m2.0784887 8.88808248c.03333833-.18633922 1.06916825-1.99807643 1.12843639-2.07675299.1663338-.08627888-.07801154-.61615246-.09653284-.81905517.01344665-.3850615.26789039-.45182166.51607574-.55948432.1369276-.07149998.18920571-.16758966.15683432-.28826904 0-.31822205.57650184-.21937982.20945291-.31822205-.57637722-.15521202-1.08057121-.12494503-1.15095213-.79589747-.00949534-.09052062.03333833-.21532533.07038092-.2774384.20373424-.34783322.37460919-.47435279 1.26363133-.63584679.40746847-.07453569 1.4902633-.14115488 2.22255534 0l.73048765.26440972c.98696841-.6553219 1.44021542-.81855291 1.35974106-.48969303-1.92145758.99652346-4.72040777 3.59815307-6.03016118 6.68097171-.35349661.47426255-.75974388.28371859-.37994951-.68472217z" fill="#000" transform="matrix(.99939083 -.0348995 .0348995 .99939083 -.215796 .185711)"/><path d="m3.66768825 6.47566145c-.05509765-.01184459-.21929823-.3194588-.19810683-.44738041.01907227-.10660134.2011738-.27161616.31772653-.30478102.05085937-.01658244.10807616-.05685405.1419824-.10186351.05297851-.06869864.12512522-.27365175.14207834-.32103012.03814453-.10186351.2278234-.14443268.36980581-.20602457.06781249-.03079594.14833983-.08528107.18224608-.12555269.05085937-.05922297.05721679-.08291216.04662108-.15634864-.01695312-.13029053-.12034959-.24723615-.30259566-.2661875-.61666986-.06396081-.92402653-.05833422-1.06986699-.43350143-.20099514-.51704984 1.53277161-.88207337 2.4954963-.63333968.26065427.04737838.65693352.19662026.64209954.23926079-1.41132016 1.12831132-1.56267812 1.36814039-2.7674866 2.75674878z" fill="#b97e51" transform="matrix(.9998477 -.01745241 .01745241 .9998477 -.085434 .085545)"/></g><path d="m6.5473577 1.25400052c-.73612472.04718496-4.6145961 4.84974452-4.95933489 8.59877627-.34473878 3.74903171 1.43621927-5.28060535 4.78967878-7.03422059 1.18606749-.21448198 4.04055381 3.91672958 4.48471851 4.14664301.4441647.22991344-.6505496-2.56869038-1.51352523-3.55059449-.86297568-.98190409-2.34668749-2.1935742-2.80153717-2.1606042z" fill="#000" transform="matrix(-.987688332 -.15643446306 -.15643446306 .987688332 32.28584174426 9.90894404294)"/></g><g transform="matrix(.90630779 -.42261826 .42261826 .90630779 0 18.833312)"><path d="m10.4822498.66672707c-1.15469491.07633939-2.25768602.60223558-3.05046088 1.52679854-2.31800421 2.66341414-6.19570623 9.70365289-6.08368425 26.78683099 0 .0763394 29.66873803-14.9202151 25.92890763-14.2331541-5.4546351-8.96570196-12.0553487-12.5706424-14.7352707-13.72422352-.6635198-.28839419-1.3787389-.40714627-2.0594918-.35625191z" fill="#000"/><path d="m5.18923389.39894106c1.50551335-1.80467897 6.34994201 2.69571471 10.96111261 9.81945134-1.4452922.4058353-16.07666058 11.0907493-16.15033149 10.9734585-.00860238-16.07805505 3.68370553-18.98823087 5.18921888-20.79290984z" fill="#ffecd3" transform="translate(5.66275 3.976544)"/><g transform="matrix(.95105652961 .30901700126 -.30901700126 .95105652961 10.43602622467 8.39033839386)"><path d="m1.4581898 10.5136551c-1.14596168-1.07797689-.88736719-3.17445519-.94871961-3.97293705-.13131454-.75967003-.59928705-2.05981971-.49423542-2.77201036.15280238-1.05454195.17613386-1.92400334.73243001-2.81111801.16235253-.25988711.38336389-.79629764.54082328-.85673699 1.22181771-.46898359 4.22581885.81676043 5.51041738 1.41249028 1.26018772.57263196 1.75782753 1.25928115 1.51496219 1.21171129-.11940583-.02338793-2.33524533 1.0436274-3.94717653 3.14656046-1.66665439 2.1743252-2.39278272 5.12716378-2.9085013 4.64204038z" fill="#f9bdbe"/><path d="m2.0784887 8.88808248c.03333833-.18633922 1.06916825-1.99807643 1.12843639-2.07675299.1663338-.08627888-.07801154-.61615246-.09653284-.81905517.01344665-.3850615.26789039-.45182166.51607574-.55948432.1369276-.07149998.18920571-.16758966.15683432-.28826904 0-.31822205.57650184-.21937982.20945291-.31822205-.57637722-.15521202-1.08057121-.12494503-1.15095213-.79589747-.00949534-.09052062.03333833-.21532533.07038092-.2774384.20373424-.34783322.37460919-.47435279 1.26363133-.63584679.40746847-.07453569 1.4902633-.14115488 2.22255534 0l.73048765.26440972c.98696841-.6553219 1.44021542-.81855291 1.35974106-.48969303-1.92145758.99652346-4.72040777 3.59815307-6.03016118 6.68097171-.35349661.47426255-.75974388.28371859-.37994951-.68472217z" fill="#000" transform="matrix(.99939083 -.0348995 .0348995 .99939083 -.215796 .185711)"/><path d="m3.66768825 6.47566145c-.05509765-.01184459-.21929823-.3194588-.19810683-.44738041.01907227-.10660134.2011738-.27161616.31772653-.30478102.05085937-.01658244.10807616-.05685405.1419824-.10186351.05297851-.06869864.12512522-.27365175.14207834-.32103012.03814453-.10186351.2278234-.14443268.36980581-.20602457.06781249-.03079594.14833983-.08528107.18224608-.12555269.05085937-.05922297.05721679-.08291216.04662108-.15634864-.01695312-.13029053-.12034959-.24723615-.30259566-.2661875-.61666986-.06396081-.92402653-.05833422-1.06986699-.43350143-.20099514-.51704984 1.53277161-.88207337 2.4954963-.63333968.26065427.04737838.65693352.19662026.64209954.23926079-1.41132016 1.12831132-1.56267812 1.36814039-2.7674866 2.75674878z" fill="#b97e51" transform="matrix(.9998477 -.01745241 .01745241 .9998477 -.085434 .085545)"/></g><path d="m6.5473577 1.25400052c-.73612472.04718496-4.6145961 4.84974452-4.95933489 8.59877627-.34473878 3.74903171 1.43621927-5.28060535 4.78967878-7.03422059 1.18606749-.21448198 4.04055381 3.91672958 4.48471851 4.14664301.4441647.22991344-.6505496-2.56869038-1.51352523-3.55059449-.86297568-.98190409-2.34668749-2.1935742-2.80153717-2.1606042z" fill="#000" transform="matrix(.98162718798 -.19080899352 .19080899352 .98162718798 4.68350731319 7.45968244422)"/></g><path d="m42.992188 12c8.94877 0 17.26346 7.692961 23.51953 18.089844 6.256072 10.396882 10.488282 23.7934 10.488282 36.433594 0 9.95811-2.86752 19.287646-8.609376 26.195312-5.741854 6.907666-14.405624 11.28125-25.398436 11.28125-11.000416 0-19.65759-4.373078-25.394532-11.28125-5.7369418-6.908172-8.597656-16.238176-8.597656-26.195312 0-12.639756 4.227948-26.036614 10.480468-36.433594 6.252522-10.3969808 14.561262-18.089844 23.51172-18.089844zm0 5c-6.525542 0-14.210458 6.382324-20.085938 16.152344s-9.90625 22.63485-9.90625 34.371094c0 9.188864 2.656224 17.596296 7.675782 23.640624 5.019558 6.04433 12.354822 9.835938 22.316406 9.835938 9.953186 0 17.295668-3.791102 22.320312-9.835938 5.024644-6.044834 7.6875-14.452736 7.6875-23.640624 0-11.735808-4.035132-24.600976-9.914062-34.371094-5.87893-9.7701178-13.570522-16.152344-20.09375-16.152344z" fill="#000"/><path d="m42.992188 17c6.523228 0 14.21482 6.3822262 20.09375 16.152344 5.87893 9.770118 9.914062 22.635286 9.914062 34.371094 0 9.187888-2.662856 17.59579-7.6875 23.640624-5.024644 6.044836-12.367126 9.835938-22.320312 9.835938-9.961584 0-17.296848-3.791608-22.316406-9.835938-5.019558-6.044328-7.675782-14.45176-7.675782-23.640624 0-11.736244 4.03077-24.601074 9.90625-34.371094s13.560396-16.152344 20.085938-16.152344z" fill="url(#a)"/></g><g fill="#000" transform="translate(0 56)"><path d="m34.2822186 19.0278184c.5773503-.5-1.5773502-3.5-13.5-10.50000001-3.7675279-2.21198275-6.5773502-3.5-9.0773502-4.5-2.50000003-1-6.24595376-2-6.92264976-2-.98931809 0-1 1 0 1.5 1.28176648.33333334 2.75598306.83333334 4.42264973 1.5 1.50000003.5 2.50000003 1 4.60000003 2 2.2791493 1.0853092 4.4 2 9.4 5.00000001 5 3 10.7682976 7.2676474 11.0773502 7z" transform="matrix(.99026807 -.1391731 .1391731 .99026807 -1.279157 2.774846)"/><path d="m33.2459997 29.1730123c.5773502-.5-1.5773503-3.5-13.5-10.5-3.767528-2.2119828-6.5773503-3.5-9.0773503-4.5-2.50000001-1-6.24595373-2-6.92264974-2-.98931809 0-1 1 0 1.5 1.28176649.3333333 2.75598306.8333333 4.42264973 1.5 1.5.5 2.50000001 1 4.60000001 2 2.2791493 1.0853091 4.4 2 9.4 5s10.7682976 7.2676474 11.0773503 7z" transform="matrix(.89100652 -.4539905 .4539905 .89100652 -7.408179 10.500739)"/><path d="m33.66535 37.1995723c.5773503-.5-1.5773503-3.5-13.5-10.5-3.7675279-2.2119827-6.5773503-3.5-9.0773503-4.5-2.49999996-1-2.69597303-1.3472487-3.44551615-.6234233s3.44551615 2.6234233 5.54551615 3.6234233c2.2791493 1.0853092 4.4 2 9.4 5s10.7682977 7.2676474 11.0773503 7z" transform="matrix(.69465837 -.7193398 .7193398 .69465837 -14.699866 23.772155)"/></g><path d="m16.9113178 16.7487796c0 1.1686434-.6489647 1.688322-2.1420905 1.688322-1.2320193 0-2.2713766-.4537684-3.569306-.4537684-1.2979295 0-2.07618035.6489647-3.50339593.6489647-1.36383963 0-1.88351826-.9734471-1.88351826-1.688322 0-1.4272156 1.03935727-1.6224118 2.20800063-2.8544312 1.16864402-1.2345535 1.81760876-2.5324829 3.04962746-2.5324829 1.4272155 0 1.880984 1.5590358 2.9203413 2.7910552.9075369 1.1686433 2.9203413 1.0393572 2.9203413 2.4006626zm-3.1155376-7.33127347c1.5590366 0 2.3372868-1.88351891 2.3372868-3.63521686 0-1.75169794-1.1027326-2.6617691-1.8176082-2.6617691-1.556501 0-2.4006626 1.62241184-2.4006626 2.72767991 0 1.03682241.4537684 3.56930605 1.880984 3.56930605zm-5.51620025 0c1.42721558 0 1.75169795-1.88351891 1.75169795-3.63521686 0-1.29792947-.84162614-2.40066268-1.68578779-2.40066268-1.49312573 0-2.14209047 1.55650169-2.14209047 2.85443116 0 1.03935726.844161 3.18144838 2.07618031 3.18144838zm-1.55650168 1.75169727c0-1.1686433-.97344711-2.3372867-1.88351826-2.3372867-.90753695 0-2.07618032 1.4272156-2.07618032 2.9862515 0 1.036823.77825084 2.5958589 2.01280437 2.5958589 1.16864402 0 1.94689421-1.6224118 1.94689421-3.2448237zm11.61545513-2.3372867c-.907537-.19519627-1.8809841.58558943-2.6592343 2.1420905-.9734471 1.7516979-.3903931 3.1155375.7123401 3.3741098 1.1027332.261107 2.2080012-.844161 2.7910552-2.4665729.5196786-1.2320193.0659108-2.85443114-.844161-3.0496274z" fill="#fabdbd" fill-rule="nonzero" transform="matrix(.74314482155 .6691306045 -.6691306045 .74314482155 65.1591792513 55.29387220566)"/><g fill="#000" transform="matrix(-1 0 0 1 110 56)"><path d="m34.2822186 19.0278184c.5773503-.5-1.5773502-3.5-13.5-10.50000001-3.7675279-2.21198275-6.5773502-3.5-9.0773502-4.5-2.50000003-1-6.24595376-2-6.92264976-2-.98931809 0-1 1 0 1.5 1.28176648.33333334 2.75598306.83333334 4.42264973 1.5 1.50000003.5 2.50000003 1 4.60000003 2 2.2791493 1.0853092 4.4 2 9.4 5.00000001 5 3 10.7682976 7.2676474 11.0773502 7z" transform="matrix(.99026807 -.1391731 .1391731 .99026807 -1.279157 2.774846)"/><path d="m33.2459997 29.1730123c.5773502-.5-1.5773503-3.5-13.5-10.5-3.767528-2.2119828-6.5773503-3.5-9.0773503-4.5-2.50000001-1-6.24595373-2-6.92264974-2-.98931809 0-1 1 0 1.5 1.28176649.3333333 2.75598306.8333333 4.42264973 1.5 1.5.5 2.50000001 1 4.60000001 2 2.2791493 1.0853091 4.4 2 9.4 5s10.7682976 7.2676474 11.0773503 7z" transform="matrix(.89100652 -.4539905 .4539905 .89100652 -7.408179 10.500739)"/><path d="m33.66535 37.1995723c.5773503-.5-1.5773503-3.5-13.5-10.5-3.7675279-2.2119827-6.5773503-3.5-9.0773503-4.5-2.49999996-1-2.69597303-1.3472487-3.44551615-.6234233s3.44551615 2.6234233 5.54551615 3.6234233c2.2791493 1.0853092 4.4 2 9.4 5s10.7682977 7.2676474 11.0773503 7z" transform="matrix(.69465837 -.7193398 .7193398 .69465837 -14.699866 23.772155)"/></g></g></svg>
