<svg height="62" viewBox="0 0 56 62" width="56" xmlns="http://www.w3.org/2000/svg"><g fill="none"><g transform="translate(1 1)"><path d="m24 60v-11.233c0-.494-.183-.971-.513-1.338l-6.643-4.381c-1.17-1.3-1.715-3.047-1.491-4.782l3.647-28.266h16l3.647 28.267c.224 1.735-.321 3.481-1.491 4.782l-6.643 4.381c-.33.367-.513.843-.513 1.337v11.233" fill="#d2dff2"/><g fill="#ffeb9b"><path d="m22 4s6-4 18-4c-3 4-6 8-3 12"/><path d="m29 29c3 2 10 4 15 0-6-3-5-7-5-7"/><path d="m50 17c3.373-2.699 4-3 4-6 0-1 0-2.203 0-4-5.523 0-9 4.477-9 10"/><path d="m45 17c0 5.523 3.477 10 9 10 0-2 .018-2.998 0-4-.04-2.205-.561-3.249-4-6"/></g><path d="m45 15c-8 0-12.489-11-21-11-18 0-17 12-24 12 0 10 11 14 24 14 10 0 14-11 21-11" fill="#f283a5"/><path d="m0 16c3 0 10.125-9.75 13.563-9.75s4.437 7.75 4.437 11.75-2.875 11.063-4.938 11.063-6.178-1.9-9.062-4.063c-4-3-4-9-4-9z" fill="#ffeb9b"/></g><g fill="#986ca1"><path d="m18.559 22.215c-.534-.156-1.085.156-1.234.689-.358 1.266-.856 2.492-1.481 3.647-.263.485-.082 1.092.404 1.355.151.081.314.12.475.12.355 0 .699-.189.881-.524.694-1.283 1.248-2.647 1.646-4.054.148-.531-.16-1.084-.691-1.233z"/><path d="m56 12v-4c0-.553-.447-1-1-1-4.814 0-8.522 3.198-9.642 7.934-1.881-.313-3.729-1.928-5.833-3.783-.558-.491-1.14-1.001-1.747-1.512-.084-2.544 1.994-5.335 4.022-8.039.228-.303.264-.708.095-1.047-.17-.339-.516-.553-.895-.553-11.119 0-17.185 3.332-18.343 4.036-10.517.368-14.096 4.985-16.723 8.403-1.59 2.068-2.738 3.561-4.934 3.561-.553 0-1 .447-1 1 0 8.245 7.632 12.895 16.356 14.426l-.996 7.713c-.261 2.027.373 4.061 1.74 5.579l6.71 4.464c.124.17.19.374.19.586v11.232c0 .553.447 1 1 1s1-.447 1-1v-11.232c0-.743-.273-1.456-.771-2.008l-6.724-4.472c-.92-1.074-1.343-2.486-1.161-3.894l.991-7.676c1.216.146 2.443.238 3.664.269v6.013c0 .553.447 1 1 1s1-.447 1-1v-6.031c1.057-.045 2.057-.155 3-.328v6.359c0 .553.447 1 1 1s1-.447 1-1v-6.835c.224-.065.451-.126.668-.197.659.417 1.444.82 2.332 1.172v5.86c0 .553.447 1 1 1s1-.447 1-1v-5.214c1.215.315 2.524.515 3.871.529l.785 6.079c.182 1.407-.241 2.819-1.161 3.894l-6.531 4.307-.192.165c-.498.552-.771 1.264-.771 2.008v11.232c0 .553.447 1 1 1s1-.447 1-1v-11.232c0-.212.066-.416.189-.586l6.518-4.298.192-.166c1.367-1.519 2.001-3.552 1.74-5.579l-.767-5.941c1.993-.268 3.981-1 5.752-2.416.266-.214.405-.548.369-.887-.035-.339-.242-.637-.547-.789-4.197-2.098-4.541-4.599-4.513-5.511 1.586-1.316 2.986-2.299 4.423-2.532 1.12 4.737 4.829 7.937 9.644 7.937.553 0 1-.447 1-1v-4c0-3.147-.802-3.928-3.396-6 2.594-2.072 3.396-2.853 3.396-6zm-20.101-3.854c-2.391-1.771-5.243-3.332-8.88-3.906 2.573-.94 6.56-1.987 11.967-2.201-1.431 1.982-2.688 4.013-3.087 6.107zm7.203 21.929c-3.749 2.087-8.269 1.152-11.018-.082 2.832-1.351 5.073-3.183 7.045-4.867.361 1.428 1.366 3.282 3.973 4.949zm-3.494-7.978c-.178.077-.329.197-.437.363-.281.237-.563.478-.85.725-3.542 3.036-7.95 6.815-15.321 6.815-9.761 0-20.239-3.789-20.961-12.081 2.517-.406 3.961-2.285 5.479-4.261 1.617-2.103 3.484-4.52 7.155-6.068 2.172 3.053 3.327 6.641 3.327 10.41 0 .264-.006.527-.017.788-.023.552.404 1.019.956 1.042.015.001.029.001.044.001.532 0 .976-.42.998-.957.013-.29.019-.581.019-.874 0-3.992-1.17-7.8-3.369-11.087 1.976-.565 4.371-.913 7.369-.913 6.651 0 10.663 3.534 14.202 6.652 2.346 2.067 4.411 3.878 6.843 4.265-.028.355-.045.716-.045 1.083s.017.727.045 1.082c-1.923.307-3.628 1.513-5.437 3.015zm14.392-10.097c0 2.333-.171 2.469-3.019 4.736l-.606.482c-.03.024-.045.059-.072.086-.026.026-.06.041-.084.07-.02.025-.024.055-.041.08-.038.057-.066.115-.091.177-.024.06-.044.117-.056.18s-.015.124-.015.188.003.125.015.188c.012.062.032.12.056.18.025.063.053.12.091.177.017.026.022.056.041.08.021.026.052.036.075.059.03.031.047.069.081.097l.604.48c2.85 2.271 3.021 2.407 3.021 4.74v2.942c-4.17-.486-7-4.027-7-8.942s2.83-8.456 7-8.942z"/><path d="m23 16c-.553 0-1 .447-1 1v2c0 .553.447 1 1 1s1-.447 1-1v-2c0-.553-.447-1-1-1z"/><path d="m28 16c-.553 0-1 .447-1 1v2c0 .553.447 1 1 1s1-.447 1-1v-2c0-.553-.447-1-1-1z"/><path d="m33 16c-.553 0-1 .447-1 1v2c0 .553.447 1 1 1s1-.447 1-1v-2c0-.553-.447-1-1-1z"/><path d="m38 16c-.553 0-1 .447-1 1v2c0 .553.447 1 1 1s1-.447 1-1v-2c0-.553-.447-1-1-1z"/><path d="m14.707 15.293c-.391-.391-1.023-.391-1.414 0l-1.293 1.293-1.293-1.293c-.391-.391-1.023-.391-1.414 0s-.391 1.023 0 1.414l1.293 1.293-1.293 1.293c-.391.391-.391 1.023 0 1.414.195.195.451.293.707.293s.512-.098.707-.293l1.293-1.293 1.293 1.293c.195.195.451.293.707.293s.512-.098.707-.293c.391-.391.391-1.023 0-1.414l-1.293-1.293 1.293-1.293c.391-.391.391-1.023 0-1.414z"/></g></g></svg>