<svg height="100%" viewBox="0 0 68 98" width="100%" xmlns="http://www.w3.org/2000/svg"><g fill="none" fill-rule="evenodd" transform="translate(-2 -5)"><g fill="#000" fill-rule="nonzero"><path d="m16.9039031 20.4778772c-.2830754-.2354528-.5109112-.5450927-.6513386-.9137251-.421543-1.1484318.1462493-2.4177524 1.2818361-2.849495 1.3764688-.5180899 2.8045564-.967101 4.2498486-1.3729364-4.6111706-7.1237366-10.4267515-12.77091448-11.93226482-10.96623551-1.45995688 1.75006982-4.79682937 7.34909701-4.98959361 22.34856611-2.6885597 1.3666385-4.5142861 2.2752426-4.5142861 2.2563053-.11202198-17.0831781 3.76568004-24.12341685 6.08368425-26.78683099.79277486-.92456296 1.89576597-1.45045915 3.05046089-1.52679854.68075289-.05089436 1.39597199.06785772 2.05949179.35625191 2.679922 1.15358112 9.2806356 4.75852156 14.7352707 13.72422352 1.6713308-.3070477-3.3296895 2.5182325-9.3731092 5.7306747z" transform="matrix(.9612617 -.27563736 .27563736 .9612617 .580512 8.091819)"/><path d="m8.10997939 17.6639445c4.77977291 1.5987711 11.41660751 3.7141576 11.98975441 4.2223153-.4503821-11.6460753-3.2524043-17.12305073-4.4890463-18.57114775-2.079061.9105913-7.40024278 3.887899-11.74405733 11.65610615-2.43286136-1.5963941-3.79707519-2.6398835-2.86843219-2.4683578 4.84003036-7.95548203 10.69699952-11.154232 13.06731482-12.17783215 1.5827568-.6849094 3.4025475-.26342699 4.5341814 1.03865406 2.0568206 2.37083712 5.4976005 8.61028357 5.3981987 23.76859649 0 .0451598-.9902453 1.8213178-.9978929 1.8664776.5846952 0-8.1783824-5.1666823-14.89002061-9.3348119z" transform="matrix(.92050485 .39073113 -.39073113 .92050485 50.54974 3)"/><path d="m35.992188 11c8.94877 0 17.26346 7.692961 23.51953 18.089844 6.256072 10.396882 10.488282 23.7934 10.488282 36.433594 0 9.95811-2.86752 19.287646-8.609376 26.195312-5.741854 6.907666-14.405624 11.28125-25.398436 11.28125-11.000416 0-19.65759-4.373078-25.394532-11.28125-5.7369418-6.908172-8.597656-16.238176-8.597656-26.195312 0-12.639756 4.227948-26.036614 10.480468-36.433594 6.252522-10.3969808 14.561262-18.089844 23.51172-18.089844zm0 5c-6.525542 0-14.210458 6.382324-20.085938 16.152344s-9.90625 22.63485-9.90625 34.371094c0 9.188864 2.656224 17.596296 7.675782 23.640624 5.019558 6.04433 12.354822 9.835938 22.316406 9.835938 9.953186 0 17.295668-3.791102 22.320312-9.835938 5.024644-6.044834 7.6875-14.452736 7.6875-23.640624 0-11.735808-4.035132-24.600976-9.914062-34.371094-5.87893-9.7701178-13.570522-16.152344-20.09375-16.152344z"/></g><path d="m35.0136986 16.831236-10.0926986 31.1905031h18.8026391l-8.2236391 23.4025246h8.2236391l-8.2236391 28.520961" stroke="#000" stroke-linecap="square" stroke-width="3"/></g></svg>
