<svg height="61" viewBox="0 0 54 61" width="54" xmlns="http://www.w3.org/2000/svg"><g fill="none"><circle cx="27" cy="37" fill="#fff" r="22.5"/><path d="m9.5 47.1c-.55 0-1.1-.3-1.35-.85-1.45-2.9-2.15-6-2.15-9.25 0-.85.65-1.5 1.5-1.5s1.5.65 1.5 1.5c0 2.8.6 5.45 1.85 7.95.35.75.05 1.65-.7 2-.2.1-.45.15-.65.15z" fill="#ff5576"/><path d="m27 58c-4.25 0-8.4-1.3-11.9-3.7-.7-.45-.85-1.4-.4-2.1s1.4-.85 2.1-.4c3 2.1 6.55 3.15 10.2 3.15 9.95 0 18-8.05 18-18s-8.05-17.95-18-17.95c-.85 0-1.5-.65-1.5-1.5s.65-1.5 1.5-1.5c11.6 0 21 9.4 21 21s-9.4 21-21 21z" fill="#ff5576"/><g fill="#444b54"><path d="m18.25 25.8c-.5 0-.95-.25-1.25-.65l-13.25-19.3c-.45-.7-.3-1.6.4-2.1.7-.45 1.6-.3 2.1.4l13.25 19.3c.45.7.3 1.6-.4 2.1-.25.15-.55.25-.85.25z"/><g transform="translate(3 13)"><path d="m8.3 38.3-.15-1c-.1-1.1-.15-2.2-.15-3.35 0-6.55 1.8-12.95 5.15-18.55.45-.7.2-1.65-.5-2.05-.7-.45-1.65-.2-2.05.5-3.5 5.8-5.4 12.4-5.6 19.15-1.3-2.8-2-5.85-2-9 0-5.25 1.95-10.3 5.5-14.2.55-.6.5-1.55-.1-2.1s-1.55-.5-2.1.1c-4.05 4.45-6.3 10.2-6.3 16.2 0 5.65 2 11.15 5.65 15.45.3.35.7.55 1.15.55.35 0 .7-.1.95-.35.4-.35.6-.85.55-1.35z"/><path d="m24 0c-2.9 0-5.75.5-8.5 1.55-.75.3-1.15 1.15-.85 1.95.3.75 1.15 1.15 1.95.85 1.05-.4 2.15-.7 3.25-.95-.85.65-1.65 1.35-2.45 2.1-.6.55-.65 1.5-.05 2.1.3.3.7.45 1.1.45.35 0 .75-.15 1-.4 1.9-1.75 3.95-3.3 6.2-4.65 1.95.15 3.8.55 5.55 1.2-9.95 6.1-16.7 16.35-18.3 27.85-.1.8.45 1.6 1.3 1.7h.2c.75 0 1.4-.55 1.5-1.3 1.55-11.2 8.45-21.15 18.4-26.6.05-.05.1-.05.2-.1 1.4.8 2.75 1.8 3.95 2.9-11.15 7.2-17.95 19.65-17.95 32.85 0 1.1.05 2.15.15 3.25-2.55-.4-5-1.3-7.25-2.6l2.35-3.45c.45-.7.3-1.6-.4-2.1-.7-.45-1.6-.3-2.1.4l-5.65 8.25c-.45.7-.3 1.6.4 2.1.25.2.55.25.85.25.5 0 .95-.25 1.25-.65l1.6-2.35c3.7 2.25 7.95 3.4 12.35 3.4 4.5 0 8.7-1.25 12.35-3.4l1.85 2.7c.3.4.75.65 1.25.65.3 0 .6-.1.85-.25.7-.45.85-1.4.4-2.1l-1.85-2.7c5.5-4.4 9.1-11.2 9.1-18.85v-.05c0-13.25-10.75-24-24-24zm1.2 38.8c.2.65.8 1.05 1.45 1.05.15 0 .3 0 .45-.05 6.15-1.85 11.75-5.2 16.3-9.75.35-.35.65-.7 1-1.05-2.25 9.2-10.55 16-20.4 16-.1 0-.2 0-.35 0-.1-1.15-.15-2.35-.15-3.5 0-12.35 6.5-24 16.95-30.55.95 1.2 1.8 2.55 2.5 3.95-.15.1-.25.2-.35.35-1.2 1.75-2.6 3.4-4.1 4.9-2.9 2.9-6.2 5.2-9.8 7-.75.35-1.05 1.25-.7 2 .25.55.8.85 1.35.85.2 0 .45-.05.65-.15 3.95-1.9 7.5-4.45 10.6-7.55 1.3-1.3 2.5-2.7 3.6-4.15.5 1.7.8 3.5.8 5.35l-1.45 1.95c-.7.85-1.45 1.65-2.25 2.45-4.2 4.2-9.4 7.3-15.05 9-.8.3-1.25 1.15-1.05 1.9z"/></g><path d="m43.25 14.85c-.3 0-.6-.1-.85-.25-.7-.45-.85-1.4-.4-2.1l5.75-8.35c.45-.7 1.4-.85 2.1-.4s.85 1.4.4 2.1l-5.75 8.35c-.3.4-.75.65-1.25.65z"/></g><circle cx="5" cy="5" fill="#fff" r="3.5"/><path d="m5 10c-2.75 0-5-2.25-5-5s2.25-5 5-5 5 2.25 5 5-2.25 5-5 5zm0-7c-1.1 0-2 .9-2 2s.9 2 2 2 2-.9 2-2-.9-2-2-2z" fill="#444b54"/><g transform="translate(44)"><circle cx="5" cy="5" fill="#fff" r="3.5"/><path d="m5 10c-2.75 0-5-2.25-5-5s2.25-5 5-5 5 2.25 5 5-2.25 5-5 5zm0-7c-1.1 0-2 .9-2 2s.9 2 2 2 2-.9 2-2-.9-2-2-2z" fill="#444b54"/></g></g></svg>