<svg height="64" viewBox="0 0 46 64" width="46" xmlns="http://www.w3.org/2000/svg"><g fill="none"><path d="m27 11h-8v-11l8 2z" fill="#c2cde7"/><path d="m4 31h38v6h-38z" fill="#f9dd8f"/><path d="m42 31h-38c0-8.835937 7.164063-16 16-16h6c8.835938 0 16 7.164063 16 16z" fill="#c2cde7"/><path d="m36.050781 39.550781-2.179687.449219c-7.1875 1.347656-14.5625 1.347656-21.75 0l-2.179688-.410156c-1.722656-.324219-2.960937-1.839844-2.94163382-3.589844h32.00022782c0 1.738281-1.238281 3.230469-2.949219 3.550781z" fill="#c2cde7"/><path d="m13 31v6h-10c-1.105469 0-2-.894531-2-2 0-2.210937 1.789063-4 4-4z" fill="#f9e3ae"/><path d="m45 35c0 1.105469-.894531 2-2 2h-10v-6h8c2.210938 0 4 1.789063 4 4z" fill="#f7cc8f"/><path d="m42.0000419 31h-38.00008375c-.00386415-1.699219.26566685-3.386719.80082285-5h36.398438c.535156 1.613281.804687 3.300781.8008229 5z" fill="#acb7d0"/><path d="m19 11h8c1.105469 0 2 .894531 2 2v2h-12v-2c0-1.105469.894531-2 2-2z" fill="#f9dd8f"/><g fill="#8d6c9f"><path d="m13 24c-.550781 0-1 .449219-1 1v2c0 .550781.449219 1 1 1s1-.449219 1-1v-2c0-.550781-.449219-1-1-1z"/><path d="m18 24c-.550781 0-1 .449219-1 1v2c0 .550781.449219 1 1 1s1-.449219 1-1v-2c0-.550781-.449219-1-1-1z"/><path d="m23 24c-.550781 0-1 .449219-1 1v2c0 .550781.449219 1 1 1s1-.449219 1-1v-2c0-.550781-.449219-1-1-1z"/><path d="m28 24c-.550781 0-1 .449219-1 1v2c0 .550781.449219 1 1 1s1-.449219 1-1v-2c0-.550781-.449219-1-1-1z"/><path d="m33 24c-.550781 0-1 .449219-1 1v2c0 .550781.449219 1 1 1s1-.449219 1-1v-2c0-.550781-.449219-1-1-1z"/><path d="m38 24c-.550781 0-1 .449219-1 1v2c0 .550781.449219 1 1 1s1-.449219 1-1v-2c0-.550781-.449219-1-1-1z"/><path d="m8 24c-.550781 0-1 .449219-1 1v2c0 .550781.449219 1 1 1s1-.449219 1-1v-2c0-.550781-.449219-1-1-1z"/><path d="m13 48c-.550781 0-1 .449219-1 1v9c0 .550781.449219 1 1 1s1-.449219 1-1v-9c0-.550781-.449219-1-1-1z"/><path d="m17 51c-.550781 0-1 .449219-1 1v4c0 .550781.449219 1 1 1s1-.449219 1-1v-4c0-.550781-.449219-1-1-1z"/><path d="m29 46c-.550781 0-1 .449219-1 1v12c0 .550781.449219 1 1 1s1-.449219 1-1v-12c0-.550781-.449219-1-1-1z"/><path d="m13 42c-.550781 0-1 .449219-1 1v2c0 .550781.449219 1 1 1s1-.449219 1-1v-2c0-.550781-.449219-1-1-1z"/><path d="m25 60c-.550781 0-1 .449219-1 1v2c0 .550781.449219 1 1 1s1-.449219 1-1v-2c0-.550781-.449219-1-1-1z"/><path d="m37 50c-.550781 0-1 .449219-1 1v3c0 .550781.449219 1 1 1s1-.449219 1-1v-3c0-.550781-.449219-1-1-1z"/><path d="m43 30.410156c-.273437-7.621093-5.585937-14.128906-13-15.921875v-1.488281c-.003906-1.269531-.804687-2.398437-2-2.820312v-7.179688c0-.550781-.449219-1-1-1s-1 .449219-1 1v7h-6v-9c0-.550781-.449219-1-1-1s-1 .449219-1 1v9.179688c-1.195312.421875-1.996094 1.550781-2 2.820312v1.488281c-7.414062 1.792969-12.726562 8.300782-13 15.921875-1.824219.796875-3.003906 2.597657-3 4.589844 0 1.65625 1.34375 3 3 3h3.460938c.34375.730469.875 1.359375 1.539062 1.820313-.003906.058593-.003906.121093 0 .179687v14c0 .550781.449219 1 1 1s1-.449219 1-1v-13.421875l1.941406.363281c1.386719.257813 2.777344.457032 4.167969.617188-.070312.136719-.105469.289062-.109375.441406v6c0 .550781.449219 1 1 1s1-.449219 1-1v-6c.011719-.082031.011719-.167969 0-.25.691406.058594 1.378906.109375 2.070313.148438-.003907.035156-.003907.066406 0 .101562v19c0 .550781.449218 1 1 1 .550781 0 1-.449219 1-1v-19h2v15c0 .550781.449218 1 1 1 .550781 0 1-.449219 1-1v-15c0-.035156 0-.066406 0-.101562.691406 0 1.378906-.089844 2.070312-.148438-.058594.078125-.105469.160156-.140625.25v1c0 .550781.449219 1 1 1s1-.449219 1-1v-1c-.003906-.152344-.039062-.304687-.109375-.441406.699219-.078125 1.410156-.167969 2.109375-.277344v13.71875c0 .550781.449219 1 1 1s1-.449219 1-1v-14h.070313l1.929687-.421875v6.421875c0 .550781.449219 1 1 1s1-.449219 1-1v-7c.003906-.058594.003906-.121094 0-.179687.664063-.460938 1.195313-1.089844 1.539063-1.820313h3.460937c1.65625 0 3-1.34375 3-3 .003906-1.992187-1.175781-3.792969-3-4.589844zm-25-16.410156v-1c0-.550781.449219-1 1-1h8c.550781 0 1 .449219 1 1v1zm2 2h6c7.910156-.019531 14.472656 6.109375 15 14h-36c.527344-7.890625 7.089844-14.019531 15-14zm15.871094 22.570313-2.179688.429687c-7.066406 1.328125-14.316406 1.328125-21.382812 0l-2.179688-.410156c-.441406-.085938-.851562-.292969-1.1875-.589844h28.117188c-.339844.292969-.75.488281-1.1875.570313zm7.128906-2.570313h-40c-.550781 0-1-.449219-1-1 0-1.65625 1.34375-3 3-3h36c1.65625 0 3 1.34375 3 3 0 .550781-.449219 1-1 1z"/></g></g></svg>